. 
 
http://www.torrenting.com          :     Once & For all ;)


               www . Torrenting . Com 

(((((((((((((= Enjoy No RAR releases =))))))))))))))))))))


...................................NFO:....................................

.                                                                                                     
       
     
     
       
       
     
     
                                         
                                         
                EXVID                    
                                         
         
                                         
         Filled the Archives             
                                         
         
                                         
                With:                    
                                         
         
                                         
                                    
     E240                           
                                    
     SP               (C) 2009      
                                         
     
     
     
                                                                                  
                                                                                   
         The.Man.With.One.Red.Shoe.1985.iNTERNAL.DVDRip.XviD-EXViDiNT               
                                                                                   
                                                                                  
     
                                                                                               
EXViD aims to iNTERNAL those releases which have been lost in the archives.
EXViD aims to PRE non-internal releases which have poor sources and are likely skipped by others. 
http://www.imdb.com/title/tt0089543/
Subtitles: BG, HR, DA, NL, EN, FI, FR, DE, EL, HU, IT, NO, ES, SV, TR
Date: 2012.01

Director: Stan Dragoti

Genres: Comedy | Thriller

Plot:
Cooper, the deputy director of the CIA, wants to be the director. So, he tries to smear the
director into resigning or being removed. The director, who knows that Cooper has been bugging
him, feeds him some false information--that there's a man who might be able to clear of the
charges against him will be arriving at the airport, so he sends his man, Brown to meet him.
Brown was just suppose to make contact with anyone at the airport thus making Cooper believe that
he is the man who can help the director. Brown picks Richard cause he is wearing mismatched
shoes, one of them being red. So Cooper sets up surveillance on Richard and sends his femme
fatale, Maddy to come on to him and find out what he knows. While Maddy is playing, Richard
actually falls for her.

Cast:
Tom Hanks	...	Richard Harlan Drew
Dabney Coleman	...	Cooper
Lori Singer	...	Maddy
Charles Durning	...	Ross
Carrie Fisher	...	Paula
Edward Herrmann	...	Brown
James Belushi	...	Morris
Irving Metzman	...	Virdon
Tom Noonan	...	Reese
Gerrit Graham	...	Carson
David L. Lander	...	Stemple
Ritch Brinkley	...	Hulse
Frank Hamilton	...	Edgar
Dortha Duckworth	...	Natalie
David Ogden Stiers	...	The Conductor

Stats:
Format                                   : AVI
Format/Info                              : Audio Video Interleave
File size                                : 701 MiB
Duration                                 : 1h 28mn
Overall bit rate mode                    : Variable
Overall bit rate                         : 1 105 Kbps

Video
ID                                       : 0
Format                                   : MPEG-4 Visual
Format profile                           : Advanced Simple@L5
Format settings, BVOP                    : 2
Format settings, QPel                    : No
Format settings, GMC                     : No warppoints
Format settings, Matrix                  : Default (H.263)
Codec ID                                 : XVID
Codec ID/Hint                            : XviD
Duration                                 : 1h 28mn
Bit rate                                 : 969 Kbps
Width                                    : 640 pixels
Height                                   : 336 pixels
Display aspect ratio                     : 1.905
Frame rate                               : 25.000 fps
Color space                              : YUV
Chroma subsampling                       : 4:2:0
Bit depth                                : 8 bits
Scan type                                : Progressive
Compression mode                         : Lossy
Bits/(Pixel*Frame)                       : 0.180
Stream size                              : 615 MiB (88%)
Writing library                          : XviD 64

Audio
ID                                       : 1
Format                                   : MPEG Audio
Format version                           : Version 1
Format profile                           : Layer 3
Codec ID                                 : 55
Codec ID/Hint                            : MP3
Duration                                 : 1h 28mn
Bit rate mode                            : Variable
Bit rate                                 : 123 Kbps
Channel(s)                               : 1 channel
Sampling rate                            : 48.0 KHz
Compression mode                         : Lossy
Stream size                              : 78.4 MiB (11%)
Alignment                                : Aligned on interleaves
Interleave, duration                     : 24 ms (0.60 video frame)
Interleave, preload duration             : 130 ms
Writing library                          : LAME3.98.4UUUULAME3.


Release notes:
Enjoy!

Looking for:
75TB+ Archives
DUTCH/FLEMiSH Archives
                                                                                                    
Greets: CRBS EPiSODE FiCO FLS iLS KLASSiGER LiPSYNC MADE NODLABS RUNNER SPRiNTER      
   

                                                                    ASCII DONE BY XX^NFO 2oo9